<svg version="1.1" id="Layer_1" xmlns="http://www.w3.org/2000/svg" xmlns:xlink="http://www.w3.org/1999/xlink" x="0px" y="0px"
	 width="100%" viewBox="0 0 400 400" enable-background="new 0 0 400 400" xml:space="preserve">
<path fill="#0F0F0F" opacity="1.000000" stroke="none" 
	d="
M183.000000,401.000000 
	C122.018906,401.000000 61.537807,401.000000 1.028355,401.000000 
	C1.028355,267.727234 1.028355,134.454468 1.028355,1.090844 
	C134.231049,1.090844 267.462189,1.090844 400.846680,1.090844 
	C400.846680,134.333191 400.846680,267.666565 400.846680,401.000000 
	C328.454529,401.000000 255.977264,401.000000 183.000000,401.000000 
M303.177856,210.168930 
	C303.177856,210.168930 303.255463,210.418503 303.809387,210.115265 
	C304.266968,209.427063 304.724579,208.738846 305.097015,208.069717 
	C305.097015,208.069717 305.116364,208.154785 305.677795,207.807526 
	C307.114960,205.869797 308.552124,203.932083 310.001221,202.000000 
	C310.001221,202.000000 309.992920,201.988480 310.539703,201.656036 
	C311.367920,200.438004 312.196136,199.219971 313.235168,197.862946 
	C313.235168,197.862946 313.248840,197.610809 313.808838,197.127838 
	C320.619141,182.945938 313.748352,169.208496 297.625458,166.124451 
	C286.699036,166.173737 275.772644,166.223038 264.379211,166.235611 
	C264.379211,166.235611 263.935028,166.384338 263.182922,166.249207 
	C262.425568,166.310577 261.668213,166.371948 260.310303,166.258652 
	C259.697266,166.302277 259.084259,166.345917 257.613068,166.205154 
	C247.100021,166.277740 236.586990,166.350327 225.146729,166.221680 
	C217.043396,166.152359 208.940079,166.083038 200.684280,165.088470 
	C200.521149,150.437225 200.358032,135.785965 200.429672,120.858383 
	C200.343170,120.530968 200.256683,120.203560 200.199326,118.960228 
	C200.159882,114.322685 200.120453,109.685143 200.316406,104.273743 
	C200.207825,99.867790 200.099243,95.461830 199.934143,90.319763 
	C198.908340,85.844582 196.316177,82.851875 191.695908,82.017288 
	C187.180328,81.201599 183.659271,82.811371 180.779892,86.446190 
	C150.788254,124.306396 120.751648,162.131012 90.696823,199.941101 
	C84.927994,207.198471 83.815231,215.102676 87.960548,223.286316 
	C91.933891,231.130447 98.725945,234.799530 108.327133,234.713196 
	C109.890480,234.619659 111.453819,234.526123 113.948669,234.510696 
	C125.902153,234.520264 137.855743,234.500900 149.809082,234.546356 
	C166.904037,234.611343 183.998810,234.723709 200.889145,234.842285 
	C200.889145,234.842285 200.914688,235.046921 200.908508,235.844284 
	C201.017578,236.896835 201.126663,237.949371 201.096222,239.903000 
	C201.194489,242.937744 201.292770,245.972488 201.229889,249.931564 
	C201.464264,269.221649 201.683578,288.511932 201.967117,307.801331 
	C201.985870,309.076965 202.494141,310.345367 202.778351,312.270264 
	C204.143341,313.910126 205.508331,315.549988 207.343948,317.795502 
	C212.084335,320.114960 216.483551,319.133087 219.907471,315.537079 
	C223.198776,312.080353 225.841110,308.005768 229.085968,303.660950 
	C233.096802,298.259308 237.107635,292.857666 241.725494,287.204559 
	C242.232834,286.508636 242.740173,285.812744 243.163284,285.128204 
	C243.163284,285.128204 243.175110,285.212402 243.769714,284.875458 
	C248.880356,278.364410 253.990997,271.853394 259.605469,265.051300 
	C259.732025,264.699615 259.858582,264.347931 260.003143,264.025085 
	C260.003143,264.025085 260.021179,263.996155 260.576904,263.633911 
	C268.044403,254.426361 275.511871,245.218826 283.026825,236.013977 
	C283.026825,236.013977 283.006805,235.970871 283.572540,235.631516 
	C288.683533,229.080307 293.794525,222.529099 298.978241,215.966370 
	C298.978241,215.966370 298.966644,215.893631 299.511536,215.557709 
	C300.533173,214.175354 301.554810,212.792999 302.373993,211.337036 
	C302.373993,211.337036 302.301392,211.539825 302.862732,211.225586 
	C303.051025,210.847656 303.239319,210.469727 303.177856,210.168930 
z"/>
<path fill="#3FCD8E" opacity="1.000000" stroke="none" 
	d="
M200.080994,105.047600 
	C200.120453,109.685143 200.159882,114.322685 200.123642,119.734100 
	C200.096939,120.716888 200.145920,120.925797 200.194901,121.134712 
	C200.358032,135.785965 200.521149,150.437225 200.638916,165.926102 
	C200.742630,174.834244 200.891724,182.904739 200.985962,191.439941 
	C200.966782,196.268448 201.002457,200.632294 201.001892,205.463898 
	C201.292114,214.592941 201.618576,223.254181 201.859894,232.051025 
	C201.666870,232.510132 201.725586,232.806061 201.928619,233.296616 
	C201.906311,233.518845 201.830582,233.959076 201.667557,234.066193 
	C201.275772,234.328796 201.138809,234.542984 201.093658,234.815857 
	C183.998810,234.723709 166.904037,234.611343 149.809082,234.546356 
	C137.855743,234.500900 125.902153,234.520264 113.121399,234.322479 
	C110.726822,234.227249 109.159500,234.320221 107.592186,234.413208 
	C98.725945,234.799530 91.933891,231.130447 87.960548,223.286316 
	C83.815231,215.102676 84.927994,207.198471 90.696823,199.941101 
	C120.751648,162.131012 150.788254,124.306396 180.779892,86.446190 
	C183.659271,82.811371 187.180328,81.201599 191.695908,82.017288 
	C196.316177,82.851875 198.908340,85.844582 199.865540,91.138809 
	C199.891632,96.321098 199.986313,100.684349 200.080994,105.047600 
z"/>
<path fill="#35B87E" opacity="1.000000" stroke="none" 
	d="
M228.768616,304.202698 
	C225.841110,308.005768 223.198776,312.080353 219.907471,315.537079 
	C216.483551,319.133087 212.084335,320.114960 207.355743,317.249268 
	C208.700165,314.662506 210.392731,312.765472 211.277451,310.546387 
	C212.477692,307.535828 212.728516,304.141327 213.968811,301.153198 
	C217.605392,292.391876 221.686356,283.814819 225.311844,275.049164 
	C235.206070,251.127136 244.755692,227.060532 254.855545,203.226517 
	C259.234741,192.892288 263.168976,182.211716 270.895996,173.595032 
	C272.111328,172.239761 272.338837,169.998657 273.470642,168.132446 
	C276.617706,168.110687 279.317261,168.123627 281.966431,168.494568 
	C277.214172,178.686600 272.379608,188.460037 267.851837,198.373611 
	C264.139923,206.500946 260.782166,214.790405 257.288513,223.016953 
	C255.017288,228.364990 252.732529,233.708252 250.545807,239.091003 
	C247.370926,246.906082 244.376801,254.795746 241.124664,262.577972 
	C237.765457,270.616486 234.173004,278.557343 230.732422,286.562347 
	C230.345871,287.461761 230.375717,288.532288 230.053314,289.468628 
	C228.983322,292.576172 228.192749,295.851929 226.630707,298.698639 
	C224.931992,301.794373 225.598389,303.318146 228.768616,304.202698 
z"/>
<path fill="#32B27A" opacity="1.000000" stroke="none" 
	d="
M273.023132,168.167145 
	C272.338837,169.998657 272.111328,172.239761 270.895996,173.595032 
	C263.168976,182.211716 259.234741,192.892288 254.855545,203.226517 
	C244.755692,227.060532 235.206070,251.127136 225.311844,275.049164 
	C221.686356,283.814819 217.605392,292.391876 213.968811,301.153198 
	C212.728516,304.141327 212.477692,307.535828 211.277451,310.546387 
	C210.392731,312.765472 208.700165,314.662506 207.120438,316.946411 
	C205.508331,315.549988 204.143341,313.910126 202.898727,311.496277 
	C203.351501,306.477448 203.683884,302.232605 204.362244,297.890137 
	C206.125626,295.952240 207.986038,294.299652 208.862656,292.230316 
	C210.400925,288.598999 211.056458,284.596069 212.570511,280.951843 
	C221.611496,259.191101 231.105942,237.613113 239.810287,215.720184 
	C245.168564,202.243225 250.588272,188.996826 260.245972,177.863937 
	C262.670441,175.069138 264.124359,171.432388 266.459930,168.149872 
	C268.938080,168.133835 270.980621,168.150497 273.023132,168.167145 
z"/>
<path fill="#38BF82" opacity="1.000000" stroke="none" 
	d="
M228.927292,303.931824 
	C225.598389,303.318146 224.931992,301.794373 226.630707,298.698639 
	C228.192749,295.851929 228.983322,292.576172 230.053314,289.468628 
	C230.375717,288.532288 230.345871,287.461761 230.732422,286.562347 
	C234.173004,278.557343 237.765457,270.616486 241.124664,262.577972 
	C244.376801,254.795746 247.370926,246.906082 250.545807,239.091003 
	C252.732529,233.708252 255.017288,228.364990 257.288513,223.016953 
	C260.782166,214.790405 264.139923,206.500946 267.851837,198.373611 
	C272.379608,188.460037 277.214172,178.686600 282.386047,168.461365 
	C284.539734,168.033279 286.223419,167.996399 288.182434,167.976013 
	C288.641296,168.003128 288.824829,168.013748 289.004761,168.441330 
	C288.511719,171.281189 288.338196,173.823532 287.475555,176.105362 
	C284.498779,183.979355 281.401184,191.812836 278.133453,199.570679 
	C268.561646,222.294922 258.894104,244.978867 249.237503,267.667267 
	C248.266220,269.949310 247.707275,273.116882 245.932297,274.210724 
	C241.047684,277.220917 241.574829,280.927979 243.175110,285.212402 
	C243.175110,285.212402 243.163284,285.128204 242.909698,285.270447 
	C242.143570,286.093811 241.631027,286.774902 241.118484,287.455994 
	C237.107635,292.857666 233.096802,298.259308 228.927292,303.931824 
z"/>
<path fill="#3CC587" opacity="1.000000" stroke="none" 
	d="
M243.472412,285.043945 
	C241.574829,280.927979 241.047684,277.220917 245.932297,274.210724 
	C247.707275,273.116882 248.266220,269.949310 249.237503,267.667267 
	C258.894104,244.978867 268.561646,222.294922 278.133453,199.570679 
	C281.401184,191.812836 284.498779,183.979355 287.475555,176.105362 
	C288.338196,173.823532 288.511719,171.281189 289.013916,168.223938 
	C289.026642,167.589600 289.045410,167.155441 289.484100,167.128174 
	C292.258270,167.125214 294.593781,167.149521 296.998444,167.510330 
	C298.374756,168.889343 299.681885,169.931839 300.936584,171.330063 
	C299.301483,174.365616 297.408539,176.913284 296.199097,179.752151 
	C293.485077,186.123001 290.974426,192.589386 288.624817,199.104828 
	C282.816040,215.212692 276.198578,230.954453 267.885193,246.264862 
	C267.857788,247.671906 267.933472,248.814743 268.007202,250.220337 
	C268.005188,250.658264 268.005127,250.833435 268.003174,251.003998 
	C268.001312,250.999390 268.012085,251.009048 267.701233,250.946106 
	C266.223846,251.150894 265.057281,251.418640 263.890717,251.686371 
	C264.587952,252.459412 265.285156,253.232468 265.879272,254.330658 
	C263.857849,257.769226 261.939514,260.882690 260.021179,263.996155 
	C260.021179,263.996155 260.003143,264.025085 259.841431,264.231445 
	C259.487030,264.739349 259.294342,265.040863 259.101624,265.342346 
	C253.990997,271.853394 248.880356,278.364410 243.472412,285.043945 
z"/>
<path fill="#40C98C" opacity="1.000000" stroke="none" 
	d="
M267.988251,246.000656 
	C276.198578,230.954453 282.816040,215.212692 288.624817,199.104828 
	C290.974426,192.589386 293.485077,186.123001 296.199097,179.752151 
	C297.408539,176.913284 299.301483,174.365616 301.345123,171.332565 
	C310.484314,171.550079 317.126587,182.242416 314.187164,190.571976 
	C313.416229,192.756577 313.537384,195.255981 313.248840,197.610809 
	C313.248840,197.610809 313.235168,197.862946 312.814331,198.048599 
	C311.593292,199.485657 310.793091,200.737061 309.992920,201.988464 
	C309.992920,201.988480 310.001221,202.000000 309.666443,202.101227 
	C307.926575,204.186554 306.521454,206.170670 305.116364,208.154785 
	C305.116364,208.154785 305.097015,208.069717 304.877563,208.231857 
	C304.190521,209.068832 303.722992,209.743668 303.255463,210.418488 
	C303.255463,210.418503 303.177856,210.168930 303.090118,210.353149 
	C302.768738,210.871521 302.535065,211.205673 302.301392,211.539825 
	C302.301392,211.539825 302.373993,211.337036 302.137756,211.466553 
	C300.923187,213.028580 299.944916,214.461105 298.966644,215.893631 
	C298.966644,215.893631 298.978241,215.966370 298.625061,216.078644 
	C291.568726,221.538025 286.181671,227.900848 283.006805,235.970871 
	C283.006805,235.970871 283.026825,236.013977 282.650269,236.059174 
	C279.854126,238.075287 277.434479,240.046188 274.892212,241.969269 
	C274.503601,241.862122 274.253693,241.905228 273.997437,242.424011 
	C273.522980,246.749725 271.418976,247.614914 267.988251,246.000656 
z"/>
<path fill="#2FAD75" opacity="1.000000" stroke="none" 
	d="
M266.024292,168.182571 
	C264.124359,171.432388 262.670441,175.069138 260.245972,177.863937 
	C250.588272,188.996826 245.168564,202.243225 239.810287,215.720184 
	C231.105942,237.613113 221.611496,259.191101 212.570511,280.951843 
	C211.056458,284.596069 210.400925,288.598999 208.862656,292.230316 
	C207.986038,294.299652 206.125626,295.952240 204.358078,297.435516 
	C204.770233,286.647797 204.127930,276.036926 208.140045,265.710541 
	C209.192581,263.943420 210.098602,262.470032 211.294098,260.852844 
	C212.387360,259.473938 213.191147,258.238800 214.015717,256.629883 
	C214.691620,254.169022 215.346725,252.081909 216.290771,249.822937 
	C218.051758,246.435089 219.523819,243.219101 221.033569,239.658997 
	C221.381241,238.208527 221.691238,237.102203 222.294708,235.815857 
	C225.254257,230.533340 228.192123,225.551559 230.524109,220.300705 
	C234.227249,211.962463 237.525757,203.444534 241.138824,194.703110 
	C242.521881,192.268570 243.761551,190.133560 245.316559,187.894623 
	C246.753571,186.527985 247.875259,185.265259 249.091339,183.665451 
	C251.458359,179.552246 253.731003,175.776123 256.368195,171.944916 
	C258.125458,170.070999 259.518158,168.252167 260.910858,166.433319 
	C261.668213,166.371948 262.425568,166.310577 263.720764,166.596085 
	C264.518860,167.283890 264.779083,167.624817 265.286133,168.017426 
	C265.696686,168.106934 265.860504,168.144745 266.024292,168.182571 
z"/>
<path fill="#2CA26D" opacity="1.000000" stroke="none" 
	d="
M200.991394,234.829071 
	C201.138809,234.542984 201.275772,234.328796 202.046341,234.021515 
	C204.192581,232.016800 206.286850,230.398895 207.309647,228.266968 
	C210.388397,221.849609 212.173706,214.647934 216.061066,208.817276 
	C223.578140,197.542374 232.245514,187.038422 240.302170,176.116135 
	C242.139450,173.625381 243.432083,170.732910 245.420578,168.021698 
	C248.239944,168.021072 250.614090,168.024078 252.899963,168.364243 
	C248.692688,174.483627 244.519821,180.228394 240.468185,186.057419 
	C235.269730,193.536392 229.148849,200.592331 225.244598,208.705933 
	C217.815475,224.144775 211.677155,240.204773 204.839874,255.678314 
	C203.581635,253.235611 202.486343,251.121414 201.391052,249.007233 
	C201.292770,245.972488 201.194489,242.937744 201.401657,239.284317 
	C201.442963,237.459396 201.178833,236.253159 200.914688,235.046921 
	C200.914688,235.046921 200.889145,234.842285 200.991394,234.829071 
z"/>
<path fill="#257F56" opacity="1.000000" stroke="none" 
	d="
M201.040833,190.975250 
	C200.891724,182.904739 200.742630,174.834244 200.715149,166.388733 
	C208.940079,166.083038 217.043396,166.152359 225.616104,166.586273 
	C226.059937,167.301987 226.034393,167.653137 225.625214,168.008972 
	C223.697906,168.790604 221.701736,169.191086 220.688385,170.409195 
	C216.146667,175.868668 212.057083,181.709412 207.425034,187.085770 
	C205.877258,188.882233 203.201157,189.706543 201.040833,190.975250 
z"/>
<path fill="#31A772" opacity="1.000000" stroke="none" 
	d="
M201.310471,249.469391 
	C202.486343,251.121414 203.581635,253.235611 204.840240,256.104370 
	C206.000214,259.907410 206.996872,262.955811 207.993530,266.004242 
	C204.127930,276.036926 204.770233,286.647797 204.012100,297.533142 
	C203.683884,302.232605 203.351501,306.477448 202.896912,311.169708 
	C202.494141,310.345367 201.985870,309.076965 201.967117,307.801331 
	C201.683578,288.511932 201.464264,269.221649 201.310471,249.469391 
z"/>
<path fill="#45B986" opacity="1.000000" stroke="none" 
	d="
M313.528839,197.369324 
	C313.537384,195.255981 313.416229,192.756577 314.187164,190.571976 
	C317.126587,182.242416 310.484314,171.550079 301.397522,170.976852 
	C299.681885,169.931839 298.374756,168.889343 297.385498,167.334671 
	C297.953003,166.689636 298.202637,166.556793 298.452271,166.423935 
	C313.748352,169.208496 320.619141,182.945938 313.528839,197.369324 
z"/>
<path fill="#45B986" opacity="1.000000" stroke="none" 
	d="
M267.885193,246.264862 
	C271.418976,247.614914 273.522980,246.749725 274.246094,242.415405 
	C274.517151,242.033585 275.014862,242.017075 275.014862,242.017075 
	C277.434479,240.046188 279.854126,238.075287 282.626556,236.057831 
	C275.511871,245.218826 268.044403,254.426361 260.299042,263.815033 
	C261.939514,260.882690 263.857849,257.769226 266.116699,254.132843 
	C266.975525,252.742935 267.493805,251.875992 268.012085,251.009048 
	C268.012085,251.009048 268.001312,250.999390 268.052277,250.876755 
	C268.162384,250.479492 268.131042,250.213974 268.009155,249.957596 
	C267.933472,248.814743 267.857788,247.671906 267.885193,246.264862 
z"/>
<path fill="#39986E" opacity="1.000000" stroke="none" 
	d="
M226.008850,168.004272 
	C226.034393,167.653137 226.059937,167.301987 226.079712,166.686874 
	C236.586990,166.350327 247.100021,166.277740 257.729553,166.541870 
	C256.894653,167.257858 255.943314,167.637131 254.658142,168.015213 
	C253.878952,168.018372 253.433609,168.022736 252.988251,168.027069 
	C250.614090,168.024078 248.239944,168.021072 244.956665,168.017654 
	C239.036789,168.010483 234.026031,168.003723 228.639160,167.992126 
	C227.511658,167.992966 226.760254,167.998627 226.008850,168.004272 
z"/>
<path fill="#3D8565" opacity="1.000000" stroke="none" 
	d="
M298.038879,166.274200 
	C298.202637,166.556793 297.953003,166.689636 297.316315,166.998154 
	C294.593781,167.149521 292.258270,167.125214 289.269287,167.222992 
	C288.347412,167.512741 288.111176,167.717560 287.907135,167.959518 
	C286.223419,167.996399 284.539734,168.033279 282.436401,168.103363 
	C279.317261,168.123627 276.617706,168.110687 273.470642,168.132462 
	C270.980621,168.150497 268.938080,168.133835 266.459930,168.149872 
	C265.860504,168.144745 265.696686,168.106934 265.234894,167.594513 
	C264.906647,166.837372 264.876434,166.554840 264.846222,166.272339 
	C275.772644,166.223038 286.699036,166.173737 298.038879,166.274200 
z"/>
<path fill="#45B986" opacity="1.000000" stroke="none" 
	d="
M283.289673,235.801193 
	C286.181671,227.900848 291.568726,221.538025 298.588684,216.084396 
	C293.794525,222.529099 288.683533,229.080307 283.289673,235.801193 
z"/>
<path fill="#31A772" opacity="1.000000" stroke="none" 
	d="
M254.991974,168.016403 
	C255.943314,167.637131 256.894653,167.257858 258.158630,166.634064 
	C259.084259,166.345917 259.697266,166.302277 260.610596,166.345993 
	C259.518158,168.252167 258.125458,170.070999 256.289948,171.611084 
	C255.562103,170.227036 255.277039,169.121719 254.991974,168.016403 
z"/>
<path fill="#45B986" opacity="1.000000" stroke="none" 
	d="
M305.397095,207.981155 
	C306.521454,206.170670 307.926575,204.186554 309.660461,202.098389 
	C308.552124,203.932083 307.114960,205.869797 305.397095,207.981155 
z"/>
<path fill="#257F56" opacity="1.000000" stroke="none" 
	d="
M200.198700,104.660675 
	C199.986313,100.684349 199.891632,96.321098 199.893799,91.506866 
	C200.099243,95.461830 200.207825,99.867790 200.198700,104.660675 
z"/>
<path fill="#45B986" opacity="1.000000" stroke="none" 
	d="
M299.239075,215.725677 
	C299.944916,214.461105 300.923187,213.028580 302.238953,211.503342 
	C301.554810,212.792999 300.533173,214.175354 299.239075,215.725677 
z"/>
<path fill="#45B986" opacity="1.000000" stroke="none" 
	d="
M310.266296,201.822250 
	C310.793091,200.737061 311.593292,199.485657 312.708923,198.118103 
	C312.196136,199.219971 311.367920,200.438004 310.266296,201.822250 
z"/>
<path fill="#289564" opacity="1.000000" stroke="none" 
	d="
M200.911591,235.445602 
	C201.178833,236.253159 201.442963,237.459396 201.471405,238.833771 
	C201.126663,237.949371 201.017578,236.896835 200.911591,235.445602 
z"/>
<path fill="#289564" opacity="1.000000" stroke="none" 
	d="
M107.959656,234.563202 
	C109.159500,234.320221 110.726822,234.227249 112.655655,234.283417 
	C111.453819,234.526123 109.890480,234.619659 107.959656,234.563202 
z"/>
<path fill="#3CC587" opacity="1.000000" stroke="none" 
	d="
M241.421997,287.330261 
	C241.631027,286.774902 242.143570,286.093811 242.951813,285.264771 
	C242.740173,285.812744 242.232834,286.508636 241.421997,287.330261 
z"/>
<path fill="#45B986" opacity="1.000000" stroke="none" 
	d="
M303.532410,210.266876 
	C303.722992,209.743668 304.190521,209.068832 304.920105,208.222321 
	C304.724579,208.738846 304.266968,209.427063 303.532410,210.266876 
z"/>
<path fill="#257F56" opacity="1.000000" stroke="none" 
	d="
M200.312286,120.996552 
	C200.145920,120.925797 200.096939,120.716888 200.109070,120.192062 
	C200.256683,120.203560 200.343170,120.530968 200.312286,120.996552 
z"/>
<path fill="#39986E" opacity="1.000000" stroke="none" 
	d="
M264.612732,166.253967 
	C264.876434,166.554840 264.906647,166.837372 264.988098,167.542816 
	C264.779083,167.624817 264.518860,167.283890 264.096802,166.663651 
	C263.935028,166.384338 264.379211,166.235611 264.612732,166.253967 
z"/>
<path fill="#45B986" opacity="1.000000" stroke="none" 
	d="
M302.582062,211.382706 
	C302.535065,211.205673 302.768738,210.871521 303.214966,210.314575 
	C303.239319,210.469727 303.051025,210.847656 302.582062,211.382706 
z"/>
<path fill="#40C98C" opacity="1.000000" stroke="none" 
	d="
M259.353577,265.196838 
	C259.294342,265.040863 259.487030,264.739349 259.832458,264.217041 
	C259.858582,264.347931 259.732025,264.699615 259.353577,265.196838 
z"/>
<path fill="#289564" opacity="1.000000" stroke="none" 
	d="
M229.015259,167.996948 
	C234.026031,168.003723 239.036789,168.010483 244.511475,168.021271 
	C243.432083,170.732910 242.139450,173.625381 240.302170,176.116135 
	C232.245514,187.038422 223.578140,197.542374 216.061066,208.817276 
	C212.173706,214.647934 210.388397,221.849609 207.309647,228.266968 
	C206.286850,230.398895 204.192581,232.016800 202.209366,233.914398 
	C201.830582,233.959076 201.906311,233.518845 201.930344,233.006653 
	C201.951248,232.301437 201.948135,232.108444 201.945023,231.915436 
	C201.618576,223.254181 201.292114,214.592941 201.352798,205.413818 
	C203.581375,203.595032 205.822449,202.619034 207.192001,200.934464 
	C211.983200,195.041245 216.784210,189.109512 220.975357,182.790359 
	C224.060394,178.138931 229.801910,174.783859 229.015259,167.996948 
z"/>
<path fill="#259261" opacity="1.000000" stroke="none" 
	d="
M228.639160,167.992126 
	C229.801910,174.783859 224.060394,178.138931 220.975357,182.790359 
	C216.784210,189.109512 211.983200,195.041245 207.192001,200.934464 
	C205.822449,202.619034 203.581375,203.595032 201.389038,204.946045 
	C201.002457,200.632294 200.966782,196.268448 200.985962,191.439941 
	C203.201157,189.706543 205.877258,188.882233 207.425034,187.085770 
	C212.057083,181.709412 216.146667,175.868668 220.688385,170.409195 
	C221.701736,169.191086 223.697906,168.790604 225.625214,168.008972 
	C226.760254,167.998627 227.511658,167.992966 228.639160,167.992126 
z"/>
<path fill="#2CA26D" opacity="1.000000" stroke="none" 
	d="
M201.859894,232.051025 
	C201.948135,232.108444 201.951248,232.301437 201.952637,232.784424 
	C201.725586,232.806061 201.666870,232.510132 201.859894,232.051025 
z"/>
<path fill="#45B986" opacity="1.000000" stroke="none" 
	d="
M288.182434,167.976013 
	C288.111176,167.717560 288.347412,167.512741 288.830627,167.250259 
	C289.045410,167.155441 289.026642,167.589600 289.017517,167.806992 
	C288.824829,168.013748 288.641296,168.003128 288.182434,167.976013 
z"/>
<path fill="#40C98C" opacity="1.000000" stroke="none" 
	d="
M267.701233,250.946106 
	C267.493805,251.875992 266.975525,252.742935 266.219788,253.807709 
	C265.285156,253.232468 264.587952,252.459412 263.890717,251.686371 
	C265.057281,251.418640 266.223846,251.150894 267.701233,250.946106 
z"/>
<path fill="#40C98C" opacity="1.000000" stroke="none" 
	d="
M268.007202,250.220337 
	C268.131042,250.213974 268.162384,250.479492 268.054138,250.881363 
	C268.005127,250.833435 268.005188,250.658264 268.007202,250.220337 
z"/>
<path fill="#3CC587" opacity="1.000000" stroke="none" 
	d="
M274.892212,241.969269 
	C275.014862,242.017075 274.517151,242.033585 274.268494,242.042175 
	C274.253693,241.905228 274.503601,241.862122 274.892212,241.969269 
z"/>
<path fill="#2DA770" opacity="1.000000" stroke="none" 
	d="
M254.658142,168.015213 
	C255.277039,169.121719 255.562103,170.227036 255.925415,171.666168 
	C253.731003,175.776123 251.458359,179.552246 248.776184,183.769226 
	C247.244843,185.472900 246.123032,186.735718 245.001221,187.998535 
	C243.761551,190.133560 242.521881,192.268570 240.810120,194.812744 
	C238.678940,197.352798 236.553314,199.267105 235.445389,201.653839 
	C231.624908,209.884232 228.050888,218.235077 224.617355,226.635834 
	C223.399887,229.614655 222.853821,232.867920 222.001221,235.995880 
	C221.691238,237.102203 221.381241,238.208527 220.728867,239.808929 
	C218.924927,243.533615 217.463379,246.764206 216.001831,249.994797 
	C215.346725,252.081909 214.691620,254.169022 213.726349,256.773560 
	C212.612320,258.526184 211.808487,259.761414 211.004639,260.996613 
	C210.098602,262.470032 209.192581,263.943420 208.140045,265.710541 
	C206.996872,262.955811 206.000214,259.907410 205.003174,256.432922 
	C211.677155,240.204773 217.815475,224.144775 225.244598,208.705933 
	C229.148849,200.592331 235.269730,193.536392 240.468185,186.057419 
	C244.519821,180.228394 248.692688,174.483627 252.899963,168.364258 
	C253.433609,168.022736 253.878952,168.018372 254.658142,168.015213 
z"/>
<path fill="#31A772" opacity="1.000000" stroke="none" 
	d="
M222.294708,235.815857 
	C222.853821,232.867920 223.399887,229.614655 224.617355,226.635834 
	C228.050888,218.235077 231.624908,209.884232 235.445389,201.653839 
	C236.553314,199.267105 238.678940,197.352798 240.666748,195.112274 
	C237.525757,203.444534 234.227249,211.962463 230.524109,220.300705 
	C228.192123,225.551559 225.254257,230.533340 222.294708,235.815857 
z"/>
<path fill="#31A772" opacity="1.000000" stroke="none" 
	d="
M216.290756,249.822937 
	C217.463379,246.764206 218.924927,243.533615 220.691162,240.153076 
	C219.523819,243.219101 218.051758,246.435089 216.290756,249.822937 
z"/>
<path fill="#31A772" opacity="1.000000" stroke="none" 
	d="
M245.316559,187.894623 
	C246.123032,186.735718 247.244843,185.472900 248.681808,184.106308 
	C247.875259,185.265259 246.753571,186.527985 245.316559,187.894623 
z"/>
<path fill="#31A772" opacity="1.000000" stroke="none" 
	d="
M211.294098,260.852844 
	C211.808487,259.761414 212.612320,258.526184 213.705551,257.147278 
	C213.191147,258.238800 212.387360,259.473938 211.294098,260.852844 
z"/>
</svg>